<svg width="235" height="88" viewBox="0 0 235 88" fill="none" xmlns="http://www.w3.org/2000/svg">
<path d="M67.6252 16.2441H22.4097V80.4511H67.6252C68.6416 80.4512 69.6167 80.0493 70.3379 79.3332C71.0591 78.6172 71.468 77.645 71.4752 76.6286V20.0749C71.4701 19.0571 71.0623 18.0828 70.3408 17.365C69.6193 16.6471 68.643 16.2441 67.6252 16.2441V16.2441Z" fill="#F18B21"/>
<path d="M70.3257 68.6894V68.5959H22.6572C21.26 68.6502 19.9388 69.2465 18.9737 70.2583C18.0086 71.2701 17.4755 72.618 17.4872 74.0162C17.4766 74.7137 17.6056 75.4063 17.8669 76.0531C18.1281 76.6999 18.5163 77.2878 19.0084 77.7822C19.5005 78.2766 20.0866 78.6675 20.7322 78.9318C21.3778 79.196 22.0697 79.3284 22.7672 79.3209C23.133 79.3209 23.529 79.3484 23.8892 79.3209H70.224C67.793 78.8177 66.825 76.6287 66.825 74.0024C66.825 71.3762 67.8452 69.1542 70.3257 68.6894Z" fill="white"/>
<path d="M17.2728 69.9435H70.774V70.4632H17.2728V69.9435Z" fill="#CCD4D3"/>
<path d="M17.2728 72.5751H70.774V73.0948H17.2728V72.5751Z" fill="#CCD4D3"/>
<path d="M17.2728 75.207H70.774V75.7268H17.2728V75.207Z" fill="#CCD4D3"/>
<path d="M17.2728 76.5243H70.774V77.044H17.2728V76.5243Z" fill="#CCD4D3"/>
<path d="M17.2728 77.8386H70.774V78.3584H17.2728V77.8386Z" fill="#CCD4D3"/>
<path d="M17.2728 73.8925H70.774V74.4122H17.2728V73.8925Z" fill="#CCD4D3"/>
<path d="M17.2728 71.2607H70.774V71.7805H17.2728V71.2607Z" fill="#CCD4D3"/>
<path d="M67.771 5.5H22.5555V69.707H67.771C68.7874 69.707 69.7625 69.3052 70.4837 68.5891C71.205 67.873 71.6138 66.9008 71.621 65.8845V9.3225C71.6138 8.30619 71.205 7.33398 70.4837 6.6179C69.7625 5.90182 68.7874 5.49997 67.771 5.5V5.5Z" fill="#EDCE8A"/>
<path d="M22.4235 79.332C22.3795 79.332 22.286 79.3072 22.242 79.3045C21.0196 79.1199 19.8945 78.5304 19.0469 77.6304C18.1992 76.7304 17.6782 75.572 17.567 74.3407C17.5525 73.7191 17.6649 73.101 17.8975 72.5243C18.1301 71.9476 18.4779 71.4245 18.9196 70.9868C19.3614 70.5492 19.8878 70.2063 20.4666 69.9792C21.0454 69.752 21.6645 69.6454 22.286 69.6657C22.33 69.6657 22.5335 69.6905 22.5775 69.6932L22.55 5.51375C22.462 5.5 22.3713 5.5 22.275 5.5C20.9708 5.44982 19.6898 5.856 18.6528 6.64859C17.6157 7.44117 16.8875 8.57055 16.5935 9.84225C16.5142 10.6095 16.4829 11.3811 16.5 12.1522L16.3763 74.5497C16.3782 74.8046 16.3966 75.059 16.4313 75.3115V75.4765H16.456C16.6759 76.862 17.3825 78.1237 18.4491 79.035C19.5156 79.9463 20.8722 80.4475 22.275 80.4485H22.4043L22.4235 79.332Z" fill="#3F5364"/>
<path d="M27.1425 82.5L24.9288 80.7565L22.715 82.5V73.9337H27.1425V82.5Z" fill="#EFB422"/>
<path d="M108.98 54.54C107.04 54.54 105.28 54.15 103.7 53.37C102.14 52.57 100.9 51.39 99.98 49.83C99.06 48.27 98.6 46.36 98.6 44.1C98.6 42.38 98.88 40.87 99.44 39.57C100 38.27 100.76 37.18 101.72 36.3C102.7 35.42 103.82 34.76 105.08 34.32C106.36 33.88 107.71 33.66 109.13 33.66C110.27 33.66 111.32 33.79 112.28 34.05C113.24 34.31 114.14 34.67 114.98 35.13L115.1 38.82H114.8L113.3 36.42C113.1 36.04 112.88 35.7 112.64 35.4C112.4 35.08 112.1 34.84 111.74 34.68C111.44 34.54 111.14 34.44 110.84 34.38C110.56 34.3 110.2 34.26 109.76 34.26C108.6 34.26 107.54 34.57 106.58 35.19C105.64 35.81 104.88 36.84 104.3 38.28C103.74 39.7 103.46 41.65 103.46 44.13C103.46 46.59 103.73 48.54 104.27 49.98C104.81 51.4 105.54 52.42 106.46 53.04C107.4 53.64 108.45 53.94 109.61 53.94C110.25 53.94 110.76 53.9 111.14 53.82C111.52 53.72 111.9 53.58 112.28 53.4C112.66 53.24 112.95 53.01 113.15 52.71C113.35 52.39 113.53 52.05 113.69 51.69L115.01 48.75H115.31L115.22 53.04C114.38 53.48 113.44 53.84 112.4 54.12C111.36 54.4 110.22 54.54 108.98 54.54ZM124.266 54.45C122.746 54.45 121.426 54.14 120.306 53.52C119.186 52.88 118.316 51.98 117.696 50.82C117.096 49.66 116.796 48.3 116.796 46.74C116.796 45.18 117.116 43.83 117.756 42.69C118.416 41.55 119.306 40.67 120.426 40.05C121.566 39.43 122.846 39.12 124.266 39.12C125.686 39.12 126.956 39.43 128.076 40.05C129.196 40.65 130.076 41.52 130.716 42.66C131.376 43.8 131.706 45.16 131.706 46.74C131.706 48.32 131.396 49.69 130.776 50.85C130.176 51.99 129.316 52.88 128.196 53.52C127.096 54.14 125.786 54.45 124.266 54.45ZM124.266 53.85C124.966 53.85 125.526 53.65 125.946 53.25C126.366 52.85 126.666 52.14 126.846 51.12C127.046 50.1 127.146 48.66 127.146 46.8C127.146 44.92 127.046 43.47 126.846 42.45C126.666 41.43 126.366 40.72 125.946 40.32C125.526 39.92 124.966 39.72 124.266 39.72C123.566 39.72 122.996 39.92 122.556 40.32C122.136 40.72 121.826 41.43 121.626 42.45C121.446 43.47 121.356 44.92 121.356 46.8C121.356 48.66 121.446 50.1 121.626 51.12C121.826 52.14 122.136 52.85 122.556 53.25C122.996 53.65 123.566 53.85 124.266 53.85ZM140.79 54.45C139.27 54.45 137.95 54.14 136.83 53.52C135.71 52.88 134.84 51.98 134.22 50.82C133.62 49.66 133.32 48.3 133.32 46.74C133.32 45.18 133.64 43.83 134.28 42.69C134.94 41.55 135.83 40.67 136.95 40.05C138.09 39.43 139.37 39.12 140.79 39.12C142.21 39.12 143.48 39.43 144.6 40.05C145.72 40.65 146.6 41.52 147.24 42.66C147.9 43.8 148.23 45.16 148.23 46.74C148.23 48.32 147.92 49.69 147.3 50.85C146.7 51.99 145.84 52.88 144.72 53.52C143.62 54.14 142.31 54.45 140.79 54.45ZM140.79 53.85C141.49 53.85 142.05 53.65 142.47 53.25C142.89 52.85 143.19 52.14 143.37 51.12C143.57 50.1 143.67 48.66 143.67 46.8C143.67 44.92 143.57 43.47 143.37 42.45C143.19 41.43 142.89 40.72 142.47 40.32C142.05 39.92 141.49 39.72 140.79 39.72C140.09 39.72 139.52 39.92 139.08 40.32C138.66 40.72 138.35 41.43 138.15 42.45C137.97 43.47 137.88 44.92 137.88 46.8C137.88 48.66 137.97 50.1 138.15 51.12C138.35 52.14 138.66 52.85 139.08 53.25C139.52 53.65 140.09 53.85 140.79 53.85ZM149.49 54V53.7L149.94 53.55C150.62 53.33 150.96 52.84 150.96 52.08V36.03C150.96 35.63 150.88 35.33 150.72 35.13C150.56 34.93 150.28 34.77 149.88 34.65L149.49 34.56V34.26L154.98 32.97L155.34 33.24L155.25 37.44V52.08C155.25 52.88 155.58 53.38 156.24 53.58L156.66 53.7V54H149.49ZM160.62 54L155.28 46.5L160.83 41.37C161.09 41.13 161.24 40.88 161.28 40.62C161.34 40.34 161.17 40.14 160.77 40.02L160.26 39.87V39.57H164.73V39.87L163.83 40.11C163.39 40.25 163.03 40.42 162.75 40.62C162.49 40.8 162.17 41.06 161.79 41.4L158.43 44.55L163.8 52.02C164.12 52.46 164.42 52.8 164.7 53.04C164.98 53.28 165.34 53.48 165.78 53.64L165.9 53.7V54H160.62ZM172.021 54.39L166.951 54V53.7L167.251 53.64C168.031 53.46 168.421 52.96 168.421 52.14V36.09C168.421 35.67 168.351 35.35 168.211 35.13C168.091 34.91 167.831 34.76 167.431 34.68L167.011 34.56V34.26L172.351 32.97L172.711 33.24L172.591 37.47V40.5C173.251 40.04 173.971 39.7 174.751 39.48C175.531 39.24 176.321 39.12 177.121 39.12C178.261 39.12 179.271 39.39 180.151 39.93C181.031 40.45 181.721 41.27 182.221 42.39C182.741 43.49 183.001 44.91 183.001 46.65C183.001 48.39 182.711 49.84 182.131 51C181.571 52.14 180.811 53 179.851 53.58C178.911 54.16 177.871 54.45 176.731 54.45C175.991 54.45 175.241 54.35 174.481 54.15C173.741 53.95 173.081 53.67 172.501 53.31L172.021 54.39ZM175.231 53.43C175.871 53.43 176.431 53.23 176.911 52.83C177.391 52.43 177.771 51.75 178.051 50.79C178.331 49.81 178.471 48.47 178.471 46.77C178.471 45.07 178.341 43.76 178.081 42.84C177.821 41.92 177.451 41.28 176.971 40.92C176.511 40.56 175.951 40.38 175.291 40.38C174.351 40.38 173.481 40.64 172.681 41.16V52.68C173.061 52.92 173.451 53.11 173.851 53.25C174.251 53.37 174.711 53.43 175.231 53.43ZM192.088 54.45C190.568 54.45 189.248 54.14 188.128 53.52C187.008 52.88 186.138 51.98 185.518 50.82C184.918 49.66 184.618 48.3 184.618 46.74C184.618 45.18 184.938 43.83 185.578 42.69C186.238 41.55 187.128 40.67 188.248 40.05C189.388 39.43 190.668 39.12 192.088 39.12C193.508 39.12 194.778 39.43 195.898 40.05C197.018 40.65 197.898 41.52 198.538 42.66C199.198 43.8 199.528 45.16 199.528 46.74C199.528 48.32 199.218 49.69 198.598 50.85C197.998 51.99 197.138 52.88 196.018 53.52C194.918 54.14 193.608 54.45 192.088 54.45ZM192.088 53.85C192.788 53.85 193.348 53.65 193.768 53.25C194.188 52.85 194.488 52.14 194.668 51.12C194.868 50.1 194.968 48.66 194.968 46.8C194.968 44.92 194.868 43.47 194.668 42.45C194.488 41.43 194.188 40.72 193.768 40.32C193.348 39.92 192.788 39.72 192.088 39.72C191.388 39.72 190.818 39.92 190.378 40.32C189.958 40.72 189.648 41.43 189.448 42.45C189.268 43.47 189.178 44.92 189.178 46.8C189.178 48.66 189.268 50.1 189.448 51.12C189.648 52.14 189.958 52.85 190.378 53.25C190.818 53.65 191.388 53.85 192.088 53.85ZM208.612 54.45C207.092 54.45 205.772 54.14 204.652 53.52C203.532 52.88 202.662 51.98 202.042 50.82C201.442 49.66 201.142 48.3 201.142 46.74C201.142 45.18 201.462 43.83 202.102 42.69C202.762 41.55 203.652 40.67 204.772 40.05C205.912 39.43 207.192 39.12 208.612 39.12C210.032 39.12 211.302 39.43 212.422 40.05C213.542 40.65 214.422 41.52 215.062 42.66C215.722 43.8 216.052 45.16 216.052 46.74C216.052 48.32 215.742 49.69 215.122 50.85C214.522 51.99 213.662 52.88 212.542 53.52C211.442 54.14 210.132 54.45 208.612 54.45ZM208.612 53.85C209.312 53.85 209.872 53.65 210.292 53.25C210.712 52.85 211.012 52.14 211.192 51.12C211.392 50.1 211.492 48.66 211.492 46.8C211.492 44.92 211.392 43.47 211.192 42.45C211.012 41.43 210.712 40.72 210.292 40.32C209.872 39.92 209.312 39.72 208.612 39.72C207.912 39.72 207.342 39.92 206.902 40.32C206.482 40.72 206.172 41.43 205.972 42.45C205.792 43.47 205.702 44.92 205.702 46.8C205.702 48.66 205.792 50.1 205.972 51.12C206.172 52.14 206.482 52.85 206.902 53.25C207.342 53.65 207.912 53.85 208.612 53.85ZM217.312 54V53.7L217.762 53.55C218.442 53.33 218.782 52.84 218.782 52.08V36.03C218.782 35.63 218.702 35.33 218.542 35.13C218.382 34.93 218.102 34.77 217.702 34.65L217.312 34.56V34.26L222.802 32.97L223.162 33.24L223.072 37.44V52.08C223.072 52.88 223.402 53.38 224.062 53.58L224.482 53.7V54H217.312ZM228.442 54L223.102 46.5L228.652 41.37C228.912 41.13 229.062 40.88 229.102 40.62C229.162 40.34 228.992 40.14 228.592 40.02L228.082 39.87V39.57H232.552V39.87L231.652 40.11C231.212 40.25 230.852 40.42 230.572 40.62C230.312 40.8 229.992 41.06 229.612 41.4L226.252 44.55L231.622 52.02C231.942 52.46 232.242 52.8 232.522 53.04C232.802 53.28 233.162 53.48 233.602 53.64L233.722 53.7V54H228.442Z" fill="black"/>
</svg>
